<svg width="19" height="18" viewBox="0 0 19 18" fill="none" xmlns="http://www.w3.org/2000/svg">
<g id="Icon">
<g id="Union">
<path d="M12.7921 0C12.8976 1.02359 12.5107 2.02891 11.9422 2.76614C11.3502 3.49119 10.4006 4.05173 9.47456 3.97861C9.35733 2.99767 9.82624 1.9558 10.3479 1.31605C10.9399 0.591004 11.9715 0.0365569 12.7921 0Z" fill="#333D4C"/>
<path d="M15.8113 5.88891C15.6843 5.96915 14.0054 7.02999 14.0227 9.17588C14.0459 11.7604 16.1821 12.6332 16.2487 12.6604L16.25 12.661C16.2383 12.7219 15.91 13.91 15.0953 15.1103C14.4095 16.1704 13.7003 17.2062 12.5632 17.2245C12.0247 17.2364 11.6611 17.0751 11.2824 16.9071C10.8861 16.7314 10.4733 16.5482 9.82597 16.5482C9.14498 16.5482 8.71434 16.7368 8.29926 16.9186C7.93908 17.0764 7.59061 17.2291 7.10045 17.2489C6.01611 17.2915 5.19552 16.1156 4.4863 15.0676C3.07372 12.923 1.97765 9.02355 3.44884 6.37317C4.15806 5.06931 5.46514 4.23459 6.85428 4.21022C7.46421 4.19988 8.05164 4.44483 8.56675 4.65962C8.96246 4.82462 9.31549 4.97182 9.60324 4.97182C9.85578 4.97182 10.1975 4.83045 10.5959 4.66566C11.2238 4.40589 11.9924 4.08792 12.7742 4.17366C13.3076 4.19194 14.8316 4.3991 15.8163 5.88575C15.8163 5.88575 15.8134 5.88759 15.8113 5.88891Z" fill="#333D4C"/>
</g>
</g>
</svg>
