<svg width="19" height="18" viewBox="0 0 19 18" fill="none" xmlns="http://www.w3.org/2000/svg">
<g id="Icon">
<g id="Union">
<path d="M5.32438 10.5647L5.32557 10.5648L2.89384 12.5543C2.3235 11.4965 2 10.2862 2 9.00002C2 7.75631 2.30247 6.58347 2.83861 5.55077L5.28231 7.55108C5.12654 8.00522 5.04163 8.49273 5.04163 9.00002C5.04169 9.55057 5.14142 10.0781 5.32438 10.5647Z" fill="#333D4C"/>
<path d="M16.8697 7.59889C16.9559 8.05259 17.0008 8.52115 17.0008 9.00001C17.0008 9.53698 16.9443 10.0608 16.8368 10.566C16.4717 12.2853 15.5177 13.7865 14.1961 14.8489L11.7528 12.8486C12.6297 12.3343 13.3151 11.5295 13.6761 10.566H9.66553V7.59889H16.8697Z" fill="#333D4C"/>
<path d="M14.1961 14.8489C12.9108 15.882 11.2787 16.5002 9.50134 16.5002C6.6451 16.5002 4.16181 14.9037 2.89502 12.5544L5.32557 10.5648C5.95895 12.2552 7.58962 13.4585 9.50134 13.4585C10.323 13.4585 11.0922 13.2364 11.7528 12.8486L14.1961 14.8489Z" fill="#333D4C"/>
<path d="M14.2882 3.22655L11.8585 5.21574C11.1748 4.7884 10.3667 4.54154 9.5009 4.54154C7.54591 4.54154 5.88474 5.80007 5.28309 7.5511L2.83977 5.55078C4.08801 3.14414 6.60221 1.49988 9.5009 1.49988C11.3207 1.49988 12.9893 2.14811 14.2882 3.22655Z" fill="#333D4C"/>
</g>
</g>
</svg>
